<?xml version="1.0" encoding="UTF-8" standalone="no"?>
<!-- Created with Inkscape (http://www.inkscape.org/) -->

<svg
   width="210mm"
   height="297mm"
   viewBox="0 0 210 297"
   version="1.1"
   id="svg3403"
   inkscape:version="1.3 (0e150ed6c4, 2023-07-21)"
   sodipodi:docname="drawing.svg"
   xmlns:inkscape="http://www.inkscape.org/namespaces/inkscape"
   xmlns:sodipodi="http://sodipodi.sourceforge.net/DTD/sodipodi-0.dtd"
   xmlns="http://www.w3.org/2000/svg"
   xmlns:svg="http://www.w3.org/2000/svg">
  <sodipodi:namedview
     id="namedview3405"
     pagecolor="#ffffff"
     bordercolor="#000000"
     borderopacity="0.25"
     inkscape:showpageshadow="2"
     inkscape:pageopacity="0.0"
     inkscape:pagecheckerboard="0"
     inkscape:deskcolor="#d1d1d1"
     inkscape:document-units="mm"
     showgrid="false"
     inkscape:zoom="0.91490602"
     inkscape:cx="-216.96218"
     inkscape:cy="845.44203"
     inkscape:window-width="3840"
     inkscape:window-height="2066"
     inkscape:window-x="-11"
     inkscape:window-y="-11"
     inkscape:window-maximized="1"
     inkscape:current-layer="svg3403" />
  <defs
     id="defs3400">
    <inkscape:perspective
       sodipodi:type="inkscape:persp3d"
       inkscape:vp_x="0 : 11.946167 : 1"
       inkscape:vp_y="0 : -1000 : 0"
       inkscape:vp_z="210 : 11.946167 : 1"
       inkscape:persp3d-origin="105 : 61.446167 : 1"
       id="perspective3520" />
    <marker
       markerWidth="232.6611"
       markerHeight="284.07759"
       refX="116.33055"
       refY="142.0388"
       orient="auto"
       id="marker3536">
      <g
         sodipodi:type="inkscape:box3d"
         id="g3522"
         style="fill:#000000"
         inkscape:perspectiveID="#perspective3520"
         inkscape:corner0="1.3126167 : -0.029161615 : 0 : 1"
         inkscape:corner7="0.22249433 : -0.079910824 : 0.25 : 1">
        <path
           sodipodi:type="inkscape:box3dside"
           id="path3528"
           style="fill:#8686bf;fill-rule:evenodd;stroke:none;stroke-linejoin:round"
           inkscape:box3dsidetype="3"
           d="M 171.60233,948.81153 324.62351,834.17445 V 677.27554 L 171.60233,865.8717 Z"
           points="324.62351,834.17445 324.62351,677.27554 171.60233,865.8717 171.60233,948.81153 " />
        <path
           sodipodi:type="inkscape:box3dside"
           id="path3530"
           style="fill:#d7d7ff;fill-rule:evenodd;stroke:none;stroke-linejoin:round"
           inkscape:box3dsidetype="14"
           d="M 324.62351,834.17445 V 677.27554 l 79.63992,67.92782 v 130.26062 z"
           points="324.62351,677.27554 404.26343,745.20336 404.26343,875.46398 324.62351,834.17445 " />
        <path
           sodipodi:type="inkscape:box3dside"
           id="path3526"
           style="fill:#4d4d9f;fill-rule:evenodd;stroke:none;stroke-linejoin:round"
           inkscape:box3dsidetype="5"
           d="M 171.60233,948.81153 324.62351,834.17445 404.26343,875.46398 232.2921,961.35313 Z"
           points="324.62351,834.17445 404.26343,875.46398 232.2921,961.35313 171.60233,948.81153 " />
        <path
           sodipodi:type="inkscape:box3dside"
           id="path3534"
           style="fill:#e9e9ff;fill-rule:evenodd;stroke:none;stroke-linejoin:round"
           inkscape:box3dsidetype="11"
           d="M 232.2921,961.35313 404.26343,875.46398 V 745.20336 L 232.2921,886.50463 Z"
           points="404.26343,875.46398 404.26343,745.20336 232.2921,886.50463 232.2921,961.35313 " />
        <path
           sodipodi:type="inkscape:box3dside"
           id="path3524"
           style="fill:#353564;fill-rule:evenodd;stroke:none;stroke-linejoin:round"
           inkscape:box3dsidetype="6"
           d="M 171.60233,948.81153 V 865.8717 l 60.68977,20.63293 v 74.8485 z"
           points="171.60233,865.8717 232.2921,886.50463 232.2921,961.35313 171.60233,948.81153 " />
        <path
           sodipodi:type="inkscape:box3dside"
           id="path3532"
           style="fill:#afafde;fill-rule:evenodd;stroke:none;stroke-linejoin:round"
           inkscape:box3dsidetype="13"
           d="M 171.60233,865.8717 324.62351,677.27554 404.26343,745.20336 232.2921,886.50463 Z"
           points="324.62351,677.27554 404.26343,745.20336 232.2921,886.50463 171.60233,865.8717 " />
      </g>
    </marker>
  </defs>
  <path
     id="path20"
     d="m 46.935147,57.536359 c 0,-1.12231 -1.6831,0.673251 -1.6831,2.020032 3.36696,3.647533 3.17066,10.157172 -0.58911,19.528522 -5.72382,0.95397 -9.93254,1.37469 -12.6261,1.26246 -1.90794,-0.39281 -3.61996,-0.58911 -5.13509,-0.58911 0,1.34678 0.47747,2.35691 1.43144,3.0303 0.95397,0.67339 1.9917,1.20658 3.11402,1.59939 2.30075,0.0561 6.20122,-0.36512 11.70058,-1.26297 -0.3367,0 -0.75793,0.7576 -1.26297,2.27273 -0.50505,1.51512 -1.68336,3.87228 -3.53519,7.07088 -1.12232,0.44893 -2.18868,1.12218 -3.19877,2.02003 -0.95397,0.84174 -1.62722,1.96382 -2.02003,3.36672 0.78562,1.29066 1.85199,1.51508 3.19877,0.67334 1.34678,-0.89785 2.55321,-1.34668 3.61942,-1.34668 1.23455,1.12231 3.28293,2.66563 6.14484,4.629687 -4.20869,6.0044 -7.57598,9.96058 -10.10119,11.86852 -2.52521,1.90794 -3.75976,3.08626 -3.70365,3.53519 0.0561,0.4489 1.1506,0.4208 3.283,-0.0842 4.26481,-1.96406 8.75418,-6.25661 13.46791,-12.87829 2.02018,1.51513 3.87174,3.61923 5.55522,6.31279 1.73959,2.63745 3.42298,3.4794 5.05034,2.52543 1.62736,-1.01008 1.09418,-2.83405 -1.59939,-5.4715 -2.63744,-2.63744 -4.90973,-4.91024 -6.81767,-6.81819 3.25472,-6.509427 6.00447,-12.177117 8.24911,-17.003087 1.17843,-4.43316 0.22402,-6.98609 -2.86236,-7.65948 -1.85182,1.0662 -4.29281,1.71133 -7.32306,1.9358 1.68347,-4.71374 3.03049,-9.25934 4.04058,-13.636379 -1.01009,-1.851825 -2.04834,-3.450859 -3.11454,-4.79764 -1.01009,-1.402898 -3.28301,-0.925825 -3.28301,-2.104265 z m 86.194223,0 c -1.12232,0 -1.68361,0.673251 -1.68361,2.020032 3.36695,3.647533 3.17065,10.157172 -0.58912,19.528522 -5.72382,0.95397 -9.93253,1.37469 -12.6261,1.26246 -1.90794,-0.39281 -3.61944,-0.58911 -5.13457,-0.58911 0,1.34678 0.47695,2.35691 1.43092,3.0303 0.95397,0.67339 1.99222,1.20658 3.11454,1.59939 2.30075,0.0561 6.20071,-0.36512 11.70006,-1.26297 -0.33669,0 -0.75741,0.7576 -1.26245,2.27273 -0.50504,1.51512 -1.68336,3.87228 -3.53519,7.07088 -1.12232,0.44893 -2.18868,1.12218 -3.19877,2.02003 -0.95397,0.84174 -1.62723,1.96382 -2.02003,3.36672 0.78562,1.29066 1.85199,1.51508 3.19877,0.67334 1.34678,-0.89785 2.55322,-1.34668 3.61942,-1.34668 1.23455,1.12231 3.28241,2.66563 6.14432,4.629687 -4.20868,6.0044 -7.57545,9.96058 -10.10067,11.86852 -2.52523,1.90794 -3.75978,3.08626 -3.70365,3.53519 0.0561,0.4489 1.1506,0.4208 3.283,-0.0842 4.26481,-1.96406 8.75366,-6.25661 13.4674,-12.87829 2.02017,1.51513 3.87225,3.61923 5.55573,6.31279 1.73959,2.63745 3.42298,3.4794 5.05034,2.52543 1.62736,-1.01008 1.09418,-2.83405 -1.59939,-5.4715 -2.63745,-2.63744 -4.91025,-4.91024 -6.81819,-6.81819 3.25473,-6.509427 6.00448,-12.177117 8.24911,-17.003087 1.17844,-4.43316 0.22454,-6.98609 -2.86184,-7.65948 -1.85182,1.0662 -4.29281,1.71133 -7.32306,1.9358 1.68347,-4.71374 3.03049,-9.25934 4.04058,-13.636379 -1.01009,-1.851825 -2.04834,-3.450859 -3.11454,-4.79764 -1.01009,-1.402898 -2.10457,-2.104265 -3.28301,-2.104265 z m -46.320683,4.854484 c -0.779551,0 -1.4968,0.532338 -2.16318,1.374077 -6.39721,-0.112232 -12.65431,0.224652 -18.77094,1.010274 -0.22447,-0.505043 -0.61707,-1.01011 -1.17823,-1.515153 -0.50504,-0.505043 -1.03822,0.112491 -1.59938,1.852083 1.62736,3.086379 3.64711,4.432879 6.06009,4.040069 5.33101,-1.06621 10.71856,-1.31874 16.16181,-0.75758 -0.61728,1.85182 -1.73988,3.56332 -3.36724,5.13457 -1.62736,1.51513 -3.08633,4.99436 -4.37699,10.4376 1.12231,-1.0662 1.73985,-1.34685 1.85208,-0.8418 0.28058,2.02017 0.58883,3.08654 0.92552,3.19877 -0.28057,0.16834 -3.02981,0.56094 -8.24859,1.17822 -5.16266,0.61728 -8.52994,0.95416 -10.10119,1.01027 h -1.85157 c -0.50504,-0.0561 -1.01011,-0.47683 -1.51515,-1.26245 -0.44893,-0.78562 -0.67334,-0.14049 -0.67334,1.9358 0,2.07629 0.9539,3.33895 2.86184,3.78788 1.96405,0.39281 8.27687,-0.39291 18.93889,-2.35696 0.67339,-0.84174 1.15034,-0.84174 1.43092,0 0,1.51513 -0.0281,4.34923 -0.0842,8.5018 0,4.152577 -0.50506,9.932217 -1.51515,17.339507 -0.50504,0.95397 -1.23453,1.26274 -2.1885,0.92604 -0.95397,-0.39281 -2.21663,-1.06606 -3.78788,-2.02003 -1.51512,-0.95396 -2.24461,-1.0102 -2.18849,-0.16846 0.11223,0.84173 0.67353,1.82375 1.68361,2.94607 1.06621,1.06621 2.58141,2.52517 4.54546,4.37699 0.39281,0 0.75781,0.47696 1.09451,1.43092 0.33669,1.01007 1.43066,0.98197 3.28249,-0.0842 1.96405,-10.71813 2.94607,-21.96916 2.94607,-33.753487 0,-0.28058 1.01013,-0.53311 3.03031,-0.75758 2.02017,-0.22446 3.25472,-0.30881 3.70365,-0.25269 0.50504,0 1.29076,0.25253 2.35696,0.75757 1.12232,-0.84174 2.18868,-0.70115 3.19877,0.42116 1.90793,2.30076 3.058133,1.29062 3.450953,-3.0303 -4.096463,-2.74971 -9.624083,-3.28289 -16.582453,-1.59942 -1.01009,-1.62736 -1.65522,-3.59139 -1.9358,-5.89214 0.89785,-1.85183 2.16052,-3.59145 3.78788,-5.21881 1.68348,-1.68347 3.19868,-3.95627 4.54546,-6.81819 -0.11223,-2.80579 -0.86983,-4.489174 -2.27273,-5.050333 -0.50504,-0.231478 -0.988518,-0.280087 -1.45624,-0.280087 z m 86.194223,0 c -0.77598,0.07453 -1.49732,0.532338 -2.16369,1.374077 -6.39722,-0.112232 -12.6538,0.224652 -18.77043,1.010274 -0.22446,-0.505043 -0.61758,-1.01011 -1.17874,-1.515153 -0.50505,-0.505043 -1.03823,0.112491 -1.59939,1.852083 1.62737,3.086379 3.64763,4.432879 6.06061,4.040069 5.33101,-1.06621 10.71857,-1.31874 16.16181,-0.75758 -0.61728,1.85182 -1.73987,3.56332 -3.36724,5.13457 -1.62736,1.51513 -3.08633,4.99436 -4.37699,10.4376 1.12232,-1.0662 1.73934,-1.34685 1.85156,-0.8418 0.28058,2.02017 0.58935,3.08654 0.92605,3.19877 -0.28058,0.16834 -3.03033,0.56094 -8.24911,1.17822 -5.16266,0.61728 -8.52943,0.95416 -10.10068,1.01027 h -1.85208 c -0.50505,-0.0561 -1.01011,-0.47683 -1.51516,-1.26245 -0.44892,-0.78562 -0.67334,-0.14049 -0.67334,1.9358 0,2.07629 0.95441,3.33895 2.86236,3.78788 1.96405,0.39281 8.27687,-0.39291 18.93889,-2.35696 0.6734,-0.84174 1.15034,-0.84174 1.43092,0 0,1.51513 -0.0281,4.34923 -0.0842,8.5018 0,4.152577 -0.50507,9.932217 -1.51515,17.339507 -0.50504,0.95397 -1.23453,1.26274 -2.1885,0.92604 -0.95397,-0.39281 -2.21664,-1.06606 -3.78788,-2.02003 -1.51515,-0.95396 -2.24463,-1.0102 -2.1885,-0.16846 0.11224,0.84173 0.67354,1.82375 1.68362,2.94607 1.0662,1.06621 2.5814,2.52517 4.54546,4.37699 0.39281,0 0.7573,0.47696 1.09399,1.43092 0.3367,1.01007 1.43118,0.98197 3.283,-0.0842 1.96405,-10.71813 2.94608,-21.96916 2.94608,-33.753487 0,-0.28058 1.01013,-0.53311 3.0303,-0.75758 2.02018,-0.22446 3.25473,-0.30881 3.70365,-0.25269 0.50504,0 1.29076,0.25253 2.35696,0.75757 1.12232,-0.84174 2.18817,-0.70115 3.19826,0.42116 1.90794,2.30076 3.05866,1.29062 3.45147,-3.0303 -4.09646,-2.74968 -9.62408,-3.28286 -16.58245,-1.59939 -1.01009,-1.62736 -1.65522,-3.59139 -1.9358,-5.89214 0.89786,-1.85183 2.16052,-3.59145 3.78788,-5.21881 1.68348,-1.68347 3.19816,-3.95627 4.54494,-6.81819 -0.11223,-2.80579 -0.86932,-4.489174 -2.27221,-5.050333 -0.50504,-0.231478 -0.99065,-0.324804 -1.45624,-0.280087 z M 53.437597,81.641353 c 0.46295,-0.0631 0.9895,0.0951 1.57871,0.47387 -1.45901,5.10654 -3.78804,10.49358 -6.98665,16.16128 -1.85182,-1.40289 -3.87209,-2.94621 -6.06061,-4.62969 1.12232,-2.18852 2.9744,-5.66775 5.55573,-10.4376 3.08638,-0.72951 4.90983,-1.20646 5.47099,-1.43092 0.14028,-0.0701 0.28751,-0.1159 0.44183,-0.13694 z m 86.194223,0 c 0.46296,-0.0631 0.98898,0.0951 1.5782,0.47387 -1.45902,5.10654 -3.78754,10.49358 -6.98614,16.16128 -1.85182,-1.40289 -3.87209,-2.94621 -6.06061,-4.62969 1.12232,-2.18852 2.97388,-5.66775 5.55522,-10.4376 3.08637,-0.72951 4.91034,-1.20646 5.4715,-1.43092 0.14029,-0.0701 0.28751,-0.1159 0.44183,-0.13694 z M 75.307057,160.6019 c 0,-0.4806 -0.93098,0.0893 -1.35185,0.29972 -0.72951,0.84174 -0.84197,1.65558 -0.33693,2.44119 0.56116,0.72951 1.40311,1.31893 2.52543,1.76786 -4.04035,5.27489 -8.64167,9.73614 -13.80433,13.38367 -7.35118,-0.78562 -14.53407,0.0277 -21.54855,2.44068 0.39281,2.35687 1.68359,3.36701 3.87211,3.03031 1.85182,-1.01009 3.87158,-1.57087 6.0601,-1.6831 2.97414,-0.50504 6.11701,-0.58939 9.42784,-0.2527 1.17844,-0.28058 2.74935,-0.505 4.71341,-0.67334 2.02017,-0.22446 3.19901,-0.14063 3.5357,0.25218 2.58133,-0.89786 4.96609,-1.00981 7.1546,-0.33642 l 2.27273,-0.33693 h 2.69338 2.52543 c 0.56116,0 1.57129,-0.22441 3.0303,-0.67334 1.45902,-0.44893 3.47928,-0.22451 6.06062,0.67334 -2.58134,1.57125 -5.1629,2.94638 -7.74423,4.12482 -0.3367,0 -0.50488,0.22441 -0.50488,0.67334 0,0.39281 0.16818,0.58911 0.50488,0.58911 0.39281,0 1.23476,-0.0281 2.52542,-0.0842 1.29067,-0.11223 2.74964,-0.33665 4.377,-0.67335 1.68347,-0.3367 3.33874,-0.81364 4.9661,-1.43092 1.51513,-1.17843 1.99208,-2.69363 1.43092,-4.54546 -1.85182,-1.85182 -4.26469,-2.89007 -7.23883,-3.11453 -2.91803,-0.22446 -5.47148,-5e-5 -7.66,0.67334 -5.16266,0.16835 -9.90456,0.2527 -14.22549,0.2527 2.4691,-1.7396 4.23683,-3.19856 5.30304,-4.377 1.90794,-1.62735 3.5632,-3.28262 4.9661,-4.9661 1.45902,-1.68348 1.9922,-3.14245 1.59939,-4.37699 -1.97809,-2.02018 -5.12941,-1.63602 -5.12941,-3.07785 z m -30.05501,2.1518 c -0.39281,1.12232 -0.22463,2.41311 0.50488,3.87212 0.72951,1.4029 1.31892,2.72128 1.76785,3.95583 0.50504,1.23454 0.70134,2.55345 0.58911,3.95635 -0.11223,1.4029 0.58914,2.10426 2.10427,2.10426 1.0662,-0.84174 1.51503,-2.04817 1.34668,-3.61942 -0.11223,-1.62735 -0.42099,-3.0582 -0.92604,-4.29276 -0.67339,-1.4029 -1.4867,-2.63745 -2.44067,-3.70365 -0.89786,-1.12232 -1.87988,-1.87991 -2.94608,-2.27273 z m 12.98371,0.27337 c 0,0.43513 -0.91901,0.45622 -1.45211,1.32602 -0.11223,0.56116 -0.11223,1.29064 0,2.1885 0.78562,1.45901 1.62757,2.91798 2.52542,4.37699 0.89786,1.4029 2.49689,2.01991 4.79764,1.85157 2.02018,-2.58133 2.91836,-5.44304 2.6939,-8.58553 -0.39281,-0.95395 -0.95411,-0.92585 -1.68362,0.0842 -0.72951,0.95397 -1.40276,2.32858 -2.02003,4.12429 -1.79571,-1.0662 -3.03026,-2.44082 -3.70365,-4.12429 -0.3367,-0.84173 -1.15755,-1.6769 -1.15755,-1.24179 z m 96.021523,0.90486 c 0,-3.87199 -7.82818,0.78571 -11.86852,2.35696 -2.97415,1.23454 -4.9663,1.51519 -5.97638,0.84181 -1.01009,-0.6734 -2.30087,-0.81398 -3.87212,-0.42117 -1.57124,0.39282 -1.85189,1.15042 -0.84181,2.27273 1.01009,1.06621 2.02022,1.88004 3.03031,2.4412 1.01008,0.56114 2.7497,0.53305 5.2188,-0.0842 2.4691,-0.67339 4.9382,-1.45911 7.4073,-2.35697 2.46911,-0.95396 5.52762,-1.29033 9.17515,-1.00975 3.64754,0.28058 6.2567,1.54325 7.82795,3.78788 1.85182,3.70365 1.99241,7.01418 0.42116,9.93221 -1.51512,2.91802 -2.21701,9.37143 -2.10478,19.36006 0.11221,9.98863 0.0841,19.0512 -0.0842,27.188 -2.86191,-4.26481 -6.62128,-8.44541 -11.2789,-12.54187 4.04034,6.95838 7.74399,13.01918 11.11095,18.18184 1.0662,1.73959 2.16017,2.02024 3.28249,0.84181 0.78562,-5.16266 1.09438,-9.93268 0.92604,-14.30972 -0.11222,-4.37704 -0.19657,-10.85856 -0.2527,-19.44429 -0.0561,-8.58574 1.06649,-16.21746 3.36724,-22.89525 0.33671,-1.57124 0.36481,-3.53527 0.0842,-5.89214 -0.28058,-2.35687 -1.68383,-4.32091 -4.20905,-5.89215 -3.70364,-1.57125 -11.36313,1.51504 -11.36313,-2.35696 z M 35.415437,175.22736 c -0.22534,0.004 -0.45375,0.0542 -0.68523,0.15245 0,1.29066 0.1963,2.32891 0.58911,3.11453 0.3367,0.39281 0.25235,0.89788 -0.25269,1.51516 0,1.7957 -0.72949,4.03987 -2.1885,6.73344 -1.4029,2.69356 -2.44063,5.16266 -3.11402,7.4073 0,0.39281 0.28013,0.81404 0.84129,1.26297 0.56116,0.39281 1.20681,0.58911 1.93632,0.58911 2.35686,-4.82596 4.74162,-9.4554 7.1546,-13.88856 -1.27664,-4.61553 -2.70349,-6.91095 -4.28088,-6.8864 z m 99.016183,9.44852 c 1.11369,0 -2.24912,0.44676 -3.40651,1.39371 0.84174,1.79571 2.02005,2.46948 3.53518,2.02055 1.01009,0.67339 1.99211,1.48671 2.94608,2.44068 1.0101,0.89785 1.0382,2.1324 0.0842,3.70365 2.18852,-0.0561 3.95626,-0.72937 5.30304,-2.02003 0.39281,-1.90795 0.0559,-3.5351 -1.01028,-4.88187 -1.85182,-0.44893 -3.67527,-1.15081 -5.47098,-2.10479 -0.65235,-0.35774 -2.64897,-0.5519 -1.98076,-0.5519 z m -65.274573,4.00337 c 0,-1.96405 -3.67555,0.0562 -5.13457,0.16847 -5.16266,0.50504 -10.12846,0.95388 -14.89831,1.34669 -0.78563,0.44892 -1.54323,0.67334 -2.27273,0.67334 -1.0662,0 -1.51555,0.53318 -1.34721,1.59939 0.16835,1.06619 0.33705,1.71133 0.5054,1.93579 0.22446,0.22447 0.50511,0.33693 0.84181,0.33693 2.58133,-0.61727 5.35868,-1.12234 8.33282,-1.51515 1.85183,-0.22448 3.87209,-0.30883 6.06061,-0.2527 2.18852,-0.33671 4.40509,-0.36481 6.64973,-0.0842 1.45901,-0.7295 2.55349,-0.30879 3.283,1.26246 -1.23455,1.90793 -2.38527,3.84437 -3.45147,5.80843 -1.0662,1.96406 -1.76757,3.67556 -2.10426,5.13457 -10.66202,-0.3367 -20.03336,0.28032 -28.11405,1.85156 1.96406,2.30076 4.32121,3.25466 7.07089,2.86185 2.80579,-0.44892 5.44308,-0.70145 7.91218,-0.75758 2.52521,-0.11227 4.15236,-0.14037 4.88187,-0.0842 0.72951,0.0561 1.45899,0.0561 2.1885,0 0.7295,-0.0561 1.62769,-0.0561 2.69389,0 1.12232,0 2.32875,0.0281 3.61942,0.0842 0.33669,4.65762 0.14039,10.01706 -0.58912,16.07757 -1.34678,3.47919 -3.39516,4.54504 -6.14484,3.19825 -2.69356,-1.34677 -4.18065,-1.76749 -4.46123,-1.26245 -0.22446,0.44893 -0.16823,0.78581 0.16847,1.01027 0.39281,0.22447 0.98171,0.64519 1.76733,1.26246 0.84174,0.61727 1.68369,1.43111 2.52543,2.44119 0.84174,1.06621 1.90811,2.02011 3.19877,2.86184 2.91803,-1.23455 4.76959,-3.423 5.55522,-6.56549 0.84173,-3.1986 1.23485,-6.11653 1.17874,-8.75398 0,-2.63745 0.0557,-4.85453 0.16795,-6.65024 0.11223,-1.85183 0.53346,-3.1421 1.26297,-3.8716 0.39281,-0.39281 0.86976,-0.64535 1.43092,-0.75758 0.56116,-0.11227 1.00999,-0.14036 1.34669,-0.0842 0.39281,0.0561 0.78541,0.0842 1.17822,0.0842 4.43315,-0.28056 8.30551,-0.25246 11.61634,0.0842 0.72951,-0.0561 1.54283,-0.0842 2.44068,-0.0842 0.95397,0 1.51527,-0.50506 1.68362,-1.51515 0,-1.62736 -1.37462,-2.55315 -4.1243,-2.77761 -2.18852,0.0561 -4.48943,0.13995 -6.90242,0.25218 -2.41298,0.0561 -4.3489,0.16859 -5.80791,0.33693 -1.4029,0.16835 -2.80615,0.30841 -4.20905,0.42065 3.19861,-4.99432 5.52764,-9.31499 6.98666,-12.96252 l -1.09399,-1.85208 c -1.96406,-0.89787 -5.89267,0.70241 -5.89267,-1.26246 z m 77.103823,10.01645 c -3.70365,4.82596 -7.15528,8.6702 -10.35389,11.53211 -1.68348,-0.39281 -2.58114,0.19609 -2.69337,1.76733 -0.0561,1.51513 -0.30865,2.83404 -0.75758,3.95635 0.67339,1.4029 1.62729,2.02043 2.86184,1.85208 3.98423,-5.61158 8.38925,-11.98115 13.21521,-19.10787 z"
     style="font-size:86.1941px;font-family:pangzhonghua;-inkscape-font-specification:'pangzhonghua, Normal';stroke-width:0.264583"
     sodipodi:nodetypes="sccccsccsccccccsscccccccccccsscccccsccsccccccsscccccccccccccsccccccccccccccsccccccccccccssccccccsccsscccccccccccccccsccccccccccccssccccccsccccscccccsscccccsscccccccccccccssccssccccccccccsscccscccccscccccccsssscsscsccsccscccccscscssccccccccccscccccccsssccssccccccscccccsccccccccccccsscccscccccccssccccccc" />
  <path
     style="fill:#000000;stroke-width:0.264583"
     d="M 31.232715,85.022393 57.838363,82.419668 51.18695,104.97663 37.305744,119.43622 50.608568,63.333007 40.197661,100.34956 l 19.375853,14.45959 7.229795,-47.427457 24.00292,2.024343 -9.254138,13.013632 0.867577,42.222002 -6.940606,-4.62707 -13.881205,-27.762412 37.016552,-0.289193 36.438171,-29.497564 -9.83253,37.594939 21.97858,15.03797 -2.89192,-31.521906 -24.00292,36.438166 -6.07302,-35.2814 28.34079,-3.181109 11.85687,-12.435247 22.26777,-1.156769 -8.38657,16.483933 -0.28919,42.222002 -14.45959,-14.74878 -6.9406,-17.062315 41.06524,-3.759494 -141.993185,75.479059 6.073029,10.98929 4.91626,-10.4109 8.386564,5.49464 11.856863,-6.65141 -6.362219,11.56767 -32.389484,8.09737 -4.91626,13.01364 10.121715,-12.72444 50.897758,-3.4703 -11.856863,7.22979 -36.148978,4.33788 26.605648,0.28919 -4.916263,17.92989 -0.578382,24.29211 -29.208375,-25.44888 55.81402,-2.02434 41.643622,-38.17332 32.67867,1.73515 -2.89191,63.33301 -18.21909,-24.29211 -11.27848,-23.13535 15.61636,9.25414 -18.50828,19.37585 19.66505,-14.1704"
     id="path21" />
</svg>
